<svg xmlns="http://www.w3.org/2000/svg" xmlns:xlink="http://www.w3.org/1999/xlink" contentStyleType="text/css" data-diagram-type="DESCRIPTION" height="1610px" preserveAspectRatio="none" style="width:489px;height:1610px;background:#FFFFFF;" version="1.1" viewBox="0 0 489 1610" width="489px" zoomAndPan="magnify"><defs/><g><!--cluster FreeGency--><g id="cluster_FreeGency"><rect fill="#FFFFFF" fill-opacity="0.00000" height="1597" rx="3.5" ry="3.5" style="stroke:#696969;stroke-width:1;" width="237.97" x="245.21" y="7"/><text fill="#000000" font-family="sans-serif" font-size="14" font-weight="bold" lengthAdjust="spacing" textLength="83.8359" x="322.277" y="21.9951">FreeGency</text></g><g id="elem_Register/Login"><ellipse cx="364.1882" cy="562.0036" fill="#F1F1F1" rx="73.0682" ry="17.0136" style="stroke:#181818;stroke-width:0.5;"/><text fill="#000000" font-family="sans-serif" font-size="14" lengthAdjust="spacing" textLength="101.001" x="310.6877" y="565.7512">Register/Login</text></g><g id="elem_Post Project"><ellipse cx="364.1855" cy="130.0011" fill="#F1F1F1" rx="66.3555" ry="15.6711" style="stroke:#181818;stroke-width:0.5;"/><text fill="#000000" font-family="sans-serif" font-size="14" lengthAdjust="spacing" textLength="82.6943" x="319.8384" y="133.7487">Post Project</text></g><g id="elem_Search for Teams"><ellipse cx="364.1933" cy="199.0027" fill="#F1F1F1" rx="81.9633" ry="18.7927" style="stroke:#181818;stroke-width:0.5;"/><text fill="#000000" font-family="sans-serif" font-size="14" lengthAdjust="spacing" textLength="123.2314" x="301.6267" y="202.165">Search for Teams</text></g><g id="elem_Review Offers"><ellipse cx="364.187" cy="270.0034" fill="#F1F1F1" rx="71.767" ry="16.7534" style="stroke:#181818;stroke-width:0.5;"/><text fill="#000000" font-family="sans-serif" font-size="14" lengthAdjust="spacing" textLength="97.5693" x="312.4024" y="273.751">Review Offers</text></g><g id="elem_Release Payment"><ellipse cx="364.1899" cy="61.004" fill="#F1F1F1" rx="81.3199" ry="18.664" style="stroke:#181818;stroke-width:0.5;"/><text fill="#000000" font-family="sans-serif" font-size="14" lengthAdjust="spacing" textLength="121.7002" x="302.1601" y="64.2378">Release Payment</text></g><g id="elem_Leave Review for Team"><ellipse cx="364.189" cy="343.9958" fill="#F1F1F1" rx="100.179" ry="22.4358" style="stroke:#181818;stroke-width:0.5;"/><text fill="#000000" font-family="sans-serif" font-size="14" lengthAdjust="spacing" textLength="164.4521" x="281.963" y="346.8425">Leave Review for Team</text></g><g id="elem_Create Team"><ellipse cx="364.1939" cy="630.0008" fill="#F1F1F1" rx="69.2039" ry="16.2408" style="stroke:#181818;stroke-width:0.5;"/><text fill="#000000" font-family="sans-serif" font-size="14" lengthAdjust="spacing" textLength="90.6582" x="315.8648" y="633.7483">Create Team</text></g><g id="elem_Invite Team Members"><ellipse cx="364.1915" cy="703.0023" fill="#F1F1F1" rx="94.7615" ry="21.3523" style="stroke:#181818;stroke-width:0.5;"/><text fill="#000000" font-family="sans-serif" font-size="14" lengthAdjust="spacing" textLength="152.4414" x="287.9708" y="705.849">Invite Team Members</text></g><g id="elem_Remove Team Members"><ellipse cx="364.1901" cy="781.996" fill="#F1F1F1" rx="102.9801" ry="22.996" style="stroke:#181818;stroke-width:0.5;"/><text fill="#000000" font-family="sans-serif" font-size="14" lengthAdjust="spacing" textLength="170.6045" x="278.8879" y="784.8427">Remove Team Members</text></g><g id="elem_Apply for Projects"><ellipse cx="364.1941" cy="858.9988" fill="#F1F1F1" rx="82.0441" ry="18.8088" style="stroke:#181818;stroke-width:0.5;"/><text fill="#000000" font-family="sans-serif" font-size="14" lengthAdjust="spacing" textLength="123.4229" x="301.5601" y="862.1521">Apply for Projects</text></g><g id="elem_Assign Tasks"><ellipse cx="364.1871" cy="417.9994" fill="#F1F1F1" rx="68.9971" ry="16.1994" style="stroke:#181818;stroke-width:0.5;"/><text fill="#000000" font-family="sans-serif" font-size="14" lengthAdjust="spacing" textLength="90.0908" x="316.1417" y="421.747">Assign Tasks</text></g><g id="elem_Track Task Progress"><ellipse cx="364.1943" cy="490.0009" fill="#F1F1F1" rx="89.5543" ry="20.3109" style="stroke:#181818;stroke-width:0.5;"/><text fill="#000000" font-family="sans-serif" font-size="14" lengthAdjust="spacing" textLength="140.7314" x="293.8286" y="492.8475">Track Task Progress</text></g><g id="elem_Leave Review for Client"><ellipse cx="364.1907" cy="935.0001" fill="#F1F1F1" rx="100.7007" ry="22.5401" style="stroke:#181818;stroke-width:0.5;"/><text fill="#000000" font-family="sans-serif" font-size="14" lengthAdjust="spacing" textLength="165.6006" x="281.3904" y="937.8468">Leave Review for Client</text></g><g id="elem_Join Team"><ellipse cx="364.1855" cy="1007.0033" fill="#F1F1F1" rx="61.7755" ry="14.7833" style="stroke:#181818;stroke-width:0.5;"/><text fill="#000000" font-family="sans-serif" font-size="14" lengthAdjust="spacing" textLength="69.2891" x="326.541" y="1010.7509">Join Team</text></g><g id="elem_Leave Team"><ellipse cx="364.1945" cy="1073.0049" fill="#F1F1F1" rx="67.4245" ry="15.8849" style="stroke:#181818;stroke-width:0.5;"/><text fill="#000000" font-family="sans-serif" font-size="14" lengthAdjust="spacing" textLength="85.7227" x="318.3332" y="1076.7525">Leave Team</text></g><g id="elem_Search for Jobs"><ellipse cx="364.1936" cy="1141.0047" fill="#F1F1F1" rx="74.7736" ry="17.3547" style="stroke:#181818;stroke-width:0.5;"/><text fill="#000000" font-family="sans-serif" font-size="14" lengthAdjust="spacing" textLength="105.4307" x="308.4783" y="1144.7523">Search for Jobs</text></g><g id="elem_Complete Tasks"><ellipse cx="364.1929" cy="1211.0006" fill="#F1F1F1" rx="77.2529" ry="17.8506" style="stroke:#181818;stroke-width:0.5;"/><text fill="#000000" font-family="sans-serif" font-size="14" lengthAdjust="spacing" textLength="111.7471" x="305.5566" y="1214.6864">Complete Tasks</text></g><g id="elem_Process Payment"><ellipse cx="364.1941" cy="1282.0048" fill="#F1F1F1" rx="80.6241" ry="18.5248" style="stroke:#181818;stroke-width:0.5;"/><text fill="#000000" font-family="sans-serif" font-size="14" lengthAdjust="spacing" textLength="120.0322" x="302.7448" y="1285.316">Process Payment</text></g><g id="elem_Send Payment Status"><ellipse cx="364.1883" cy="1356.9957" fill="#F1F1F1" rx="93.9783" ry="21.1957" style="stroke:#181818;stroke-width:0.5;"/><text fill="#000000" font-family="sans-serif" font-size="14" lengthAdjust="spacing" textLength="150.6914" x="288.8426" y="1359.8423">Send Payment Status</text></g><g id="elem_Create Trello Board"><ellipse cx="364.1926" cy="1432.9985" fill="#F1F1F1" rx="87.6426" ry="19.9285" style="stroke:#181818;stroke-width:0.5;"/><text fill="#000000" font-family="sans-serif" font-size="14" lengthAdjust="spacing" textLength="136.3838" x="296.0007" y="1435.8452">Create Trello Board</text></g><g id="elem_Sync Tasks"><ellipse cx="364.1917" cy="1572.9983" fill="#F1F1F1" rx="64.7417" ry="15.3483" style="stroke:#181818;stroke-width:0.5;"/><text fill="#000000" font-family="sans-serif" font-size="14" lengthAdjust="spacing" textLength="78.0186" x="322.1824" y="1576.7459">Sync Tasks</text></g><g id="elem_Track Progress"><ellipse cx="364.1929" cy="1505.0046" fill="#F1F1F1" rx="74.1229" ry="17.2246" style="stroke:#181818;stroke-width:0.5;"/><text fill="#000000" font-family="sans-serif" font-size="14" lengthAdjust="spacing" textLength="103.749" x="309.3184" y="1508.7521">Track Progress</text></g><!--entity Client--><g id="elem_Client"><ellipse cx="70.1051" cy="205.35" fill="#454645" rx="8" ry="8" style="stroke:#454645;stroke-width:0.5;"/><path d="M70.1051,213.35 L70.1051,240.35 M57.1051,221.35 L83.1051,221.35 M70.1051,240.35 L57.1051,255.35 M70.1051,240.35 L83.1051,255.35 " fill="#FFFFFF" fill-opacity="0.00000" style="stroke:#454645;stroke-width:0.5;"/><text fill="#454645" font-family="sans-serif" font-size="14" lengthAdjust="spacing" textLength="40.5303" x="49.84" y="269.8451">Client</text></g><!--entity TeamLeader--><g id="elem_TeamLeader"><ellipse cx="70.11" cy="637.35" fill="#454645" rx="8" ry="8" style="stroke:#454645;stroke-width:0.5;"/><path d="M70.11,645.35 L70.11,672.35 M57.11,653.35 L83.11,653.35 M70.11,672.35 L57.11,687.35 M70.11,672.35 L83.11,687.35 " fill="#FFFFFF" fill-opacity="0.00000" style="stroke:#454645;stroke-width:0.5;"/><text fill="#454645" font-family="sans-serif" font-size="14" lengthAdjust="spacing" textLength="92.0801" x="24.07" y="701.8451">Team Leader</text></g><!--entity TeamMember--><g id="elem_TeamMember"><ellipse cx="70.109" cy="1043.35" fill="#454645" rx="8" ry="8" style="stroke:#454645;stroke-width:0.5;"/><path d="M70.109,1051.35 L70.109,1078.35 M57.109,1059.35 L83.109,1059.35 M70.109,1078.35 L57.109,1093.35 M70.109,1078.35 L83.109,1093.35 " fill="#FFFFFF" fill-opacity="0.00000" style="stroke:#454645;stroke-width:0.5;"/><text fill="#454645" font-family="sans-serif" font-size="14" lengthAdjust="spacing" textLength="101.418" x="19.4" y="1107.8451">Team Member</text></g><!--entity PaymentGateway--><g id="elem_PaymentGateway"><ellipse cx="70.1074" cy="1289.35" fill="#454645" rx="8" ry="8" style="stroke:#454645;stroke-width:0.5;"/><path d="M70.1074,1297.35 L70.1074,1324.35 M57.1074,1305.35 L83.1074,1305.35 M70.1074,1324.35 L57.1074,1339.35 M70.1074,1324.35 L83.1074,1339.35 " fill="#FFFFFF" fill-opacity="0.00000" style="stroke:#454645;stroke-width:0.5;"/><text fill="#454645" font-family="sans-serif" font-size="14" lengthAdjust="spacing" textLength="128.2148" x="6" y="1353.8451">Payment Gateway</text></g><!--entity TrelloIntegration--><g id="elem_TrelloIntegration"><ellipse cx="70.1097" cy="1475.35" fill="#454645" rx="8" ry="8" style="stroke:#454645;stroke-width:0.5;"/><path d="M70.1097,1483.35 L70.1097,1510.35 M57.1097,1491.35 L83.1097,1491.35 M70.1097,1510.35 L57.1097,1525.35 M70.1097,1510.35 L83.1097,1525.35 " fill="#FFFFFF" fill-opacity="0.00000" style="stroke:#454645;stroke-width:0.5;"/><text fill="#454645" font-family="sans-serif" font-size="14" lengthAdjust="spacing" textLength="120.8594" x="9.68" y="1539.8451">Trello Integration</text></g><!--link Client to Register/Login--><g id="link_Client_Register/Login"><path d="M82.21,273.54 C102.38,336.56 151.13,461.28 237.21,528 C254.58,541.46 271.0383,548.2307 292.0283,553.1507 " fill="#FFFFFF" fill-opacity="0.00000" id="Client-to-Register/Login" style="stroke:#454645;stroke-width:1;"/><polygon fill="#454645" points="297.87,554.52,290.0203,548.5716,293.0019,553.3789,288.1946,556.3605,297.87,554.52" style="stroke:#454645;stroke-width:1;"/></g><!--link Client to Post Project--><g id="link_Client_Post Project"><path d="M90.69,226.29 C109.51,217.93 138.76,205.01 164.21,194 C196.57,180.01 203.86,174.38 237.21,163 C262.57,154.35 285.6214,148.0539 309.3214,142.2639 " fill="#FFFFFF" fill-opacity="0.00000" id="Client-to-Post Project" style="stroke:#454645;stroke-width:1;"/><polygon fill="#454645" points="315.15,140.84,305.4578,139.0902,310.2928,142.0266,307.3564,146.8616,315.15,140.84" style="stroke:#454645;stroke-width:1;"/></g><!--link Client to Search for Teams--><g id="link_Client_Search for Teams"><path d="M90.73,232.58 C131.02,227.62 218.9051,216.7843 285.1651,208.6143 " fill="#FFFFFF" fill-opacity="0.00000" id="Client-to-Search for Teams" style="stroke:#454645;stroke-width:1;"/><polygon fill="#454645" points="291.12,207.88,281.6981,205.0114,286.1576,208.4919,282.6771,212.9513,291.12,207.88" style="stroke:#454645;stroke-width:1;"/></g><!--link Client to Review Offers--><g id="link_Client_Review Offers"><path d="M90.73,237.35 C132.74,242.39 227.0526,253.6866 293.5226,261.6466 " fill="#FFFFFF" fill-opacity="0.00000" id="Client-to-Review Offers" style="stroke:#454645;stroke-width:1;"/><polygon fill="#454645" points="299.48,262.36,291.0195,257.3182,294.5155,261.7655,290.0682,265.2615,299.48,262.36" style="stroke:#454645;stroke-width:1;"/></g><!--link Client to Release Payment--><g id="link_Client_Release Payment"><path d="M90.71,213.64 C119.78,183.24 177.36,127.77 237.21,97 C257.34,86.65 275.0586,80.441 296.2786,74.841 " fill="#FFFFFF" fill-opacity="0.00000" id="Client-to-Release Payment" style="stroke:#454645;stroke-width:1;"/><polygon fill="#454645" points="302.08,73.31,292.3573,71.7389,297.2455,74.5858,294.3986,79.4741,302.08,73.31" style="stroke:#454645;stroke-width:1;"/></g><!--link Client to Leave Review for Team--><g id="link_Client_Leave Review for Team"><path d="M90.83,243.84 C121.73,257.55 183.54,284.37 237.21,304 C258.34,311.72 276.0235,317.6093 296.8735,324.1293 " fill="#FFFFFF" fill-opacity="0.00000" id="Client-to-Leave Review for Team" style="stroke:#454645;stroke-width:1;"/><polygon fill="#454645" points="302.6,325.92,295.204,319.4162,297.8279,324.4277,292.8164,327.0516,302.6,325.92" style="stroke:#454645;stroke-width:1;"/></g><!--link TeamLeader to Register/Login--><g id="link_TeamLeader_Register/Login"><path d="M116.47,646.75 C131.62,640.07 148.61,632.64 164.21,626 C196.49,612.26 203.99,607.26 237.21,596 C261.46,587.78 283.0389,581.6938 306.0689,575.7738 " fill="#FFFFFF" fill-opacity="0.00000" id="TeamLeader-to-Register/Login" style="stroke:#454645;stroke-width:1;"/><polygon fill="#454645" points="311.88,574.28,302.1675,572.6466,307.0374,575.5248,304.1592,580.3947,311.88,574.28" style="stroke:#454645;stroke-width:1;"/></g><!--link TeamLeader to Create Team--><g id="link_TeamLeader_Create Team"><path d="M116.43,661.26 C166.42,654.93 241.1676,645.454 296.5876,638.434 " fill="#FFFFFF" fill-opacity="0.00000" id="TeamLeader-to-Create Team" style="stroke:#454645;stroke-width:1;"/><polygon fill="#454645" points="302.54,637.68,293.1087,634.8427,297.5796,638.3083,294.114,642.7793,302.54,637.68" style="stroke:#454645;stroke-width:1;"/></g><!--link TeamLeader to Invite Team Members--><g id="link_TeamLeader_Invite Team Members"><path d="M116.43,672.59 C160.01,677.96 220.975,685.4763 274.135,692.0263 " fill="#FFFFFF" fill-opacity="0.00000" id="TeamLeader-to-Invite Team Members" style="stroke:#454645;stroke-width:1;"/><polygon fill="#454645" points="280.09,692.76,271.6467,687.6894,275.1275,692.1486,270.6684,695.6294,280.09,692.76" style="stroke:#454645;stroke-width:1;"/></g><!--link TeamLeader to Remove Team Members--><g id="link_TeamLeader_Remove Team Members"><path d="M104.69,705.5 C121.02,721.78 141.92,739.4 164.21,750 C194.71,764.5 224.5454,771.7966 257.2854,776.2766 " fill="#FFFFFF" fill-opacity="0.00000" id="TeamLeader-to-Remove Team Members" style="stroke:#454645;stroke-width:1;"/><polygon fill="#454645" points="263.23,777.09,254.8554,771.9068,258.2762,776.4121,253.7708,779.8329,263.23,777.09" style="stroke:#454645;stroke-width:1;"/></g><!--link TeamLeader to Apply for Projects--><g id="link_TeamLeader_Apply for Projects"><path d="M97.78,705.42 C115.01,728.49 138.89,757.46 164.21,779 C204.49,813.25 255.5273,832.5199 298.1373,844.3099 " fill="#FFFFFF" fill-opacity="0.00000" id="TeamLeader-to-Apply for Projects" style="stroke:#454645;stroke-width:1;"/><polygon fill="#454645" points="303.92,845.91,296.3126,839.6548,299.1011,844.5766,294.1792,847.3651,303.92,845.91" style="stroke:#454645;stroke-width:1;"/></g><!--link TeamLeader to Assign Tasks--><g id="link_TeamLeader_Assign Tasks"><path d="M89.14,628.68 C114.64,579.08 166.19,494.05 237.21,452 C257.88,439.77 277.1794,433.1606 299.5594,428.0706 " fill="#FFFFFF" fill-opacity="0.00000" id="TeamLeader-to-Assign Tasks" style="stroke:#454645;stroke-width:1;"/><polygon fill="#454645" points="305.41,426.74,295.747,424.8356,300.5345,427.8489,297.5212,432.6363,305.41,426.74" style="stroke:#454645;stroke-width:1;"/></g><!--link TeamLeader to Track Task Progress--><g id="link_TeamLeader_Track Task Progress"><path d="M107.24,628.48 C138.78,596.98 187.21,553.47 237.21,527 C255.85,517.14 271.695,511.1977 291.705,505.5577 " fill="#FFFFFF" fill-opacity="0.00000" id="TeamLeader-to-Track Task Progress" style="stroke:#454645;stroke-width:1;"/><polygon fill="#454645" points="297.48,503.93,287.7324,502.5216,292.6675,505.2864,289.9027,510.2216,297.48,503.93" style="stroke:#454645;stroke-width:1;"/></g><!--link TeamLeader to Leave Review for Client--><g id="link_TeamLeader_Leave Review for Client"><path d="M87.01,705.35 C111.04,757.98 161.94,851.03 237.21,895 C254.26,904.95 268.3397,910.9196 287.1397,916.8696 " fill="#FFFFFF" fill-opacity="0.00000" id="TeamLeader-to-Leave Review for Client" style="stroke:#454645;stroke-width:1;"/><polygon fill="#454645" points="292.86,918.68,285.4864,912.1508,288.093,917.1713,283.0725,919.7779,292.86,918.68" style="stroke:#454645;stroke-width:1;"/></g><!--link TeamMember to Register/Login--><g id="link_TeamMember_Register/Login"><path d="M96.26,1034.73 C133.2,976.2 200.79,859.69 229.21,750 C233.51,733.41 226.45,609.33 237.21,596 C250.74,579.26 265.7269,571.5794 286.5769,566.8794 " fill="#FFFFFF" fill-opacity="0.00000" id="TeamMember-to-Register/Login" style="stroke:#454645;stroke-width:1;"/><polygon fill="#454645" points="292.43,565.56,282.7707,563.637,287.5524,566.6595,284.5299,571.4412,292.43,565.56" style="stroke:#454645;stroke-width:1;"/></g><!--link TeamMember to Join Team--><g id="link_TeamMember_Join Team"><path d="M121.18,1058.28 C135.07,1054.4 150.18,1050.37 164.21,1047 C214.93,1034.84 267.6111,1024.4666 308.0111,1016.9566 " fill="#FFFFFF" fill-opacity="0.00000" id="TeamMember-to-Join Team" style="stroke:#454645;stroke-width:1;"/><polygon fill="#454645" points="313.91,1015.86,304.3305,1013.5722,308.9942,1016.7738,305.7926,1021.4375,313.91,1015.86" style="stroke:#454645;stroke-width:1;"/></g><!--link TeamMember to Leave Team--><g id="link_TeamMember_Leave Team"><path d="M120.99,1073 C169.38,1073 237.13,1073 290.54,1073 " fill="#FFFFFF" fill-opacity="0.00000" id="TeamMember-to-Leave Team" style="stroke:#454645;stroke-width:1;"/><polygon fill="#454645" points="296.54,1073,287.54,1069,291.54,1073,287.54,1077,296.54,1073" style="stroke:#454645;stroke-width:1;"/></g><!--link TeamMember to Search for Jobs--><g id="link_TeamMember_Search for Jobs"><path d="M120.99,1084.61 C173.62,1096.86 250.3963,1114.7395 304.2163,1127.2695 " fill="#FFFFFF" fill-opacity="0.00000" id="TeamMember-to-Search for Jobs" style="stroke:#454645;stroke-width:1;"/><polygon fill="#454645" points="310.06,1128.63,302.2014,1122.6934,305.1902,1127.4963,300.3874,1130.4851,310.06,1128.63" style="stroke:#454645;stroke-width:1;"/></g><!--link TeamMember to Complete Tasks--><g id="link_TeamMember_Complete Tasks"><path d="M121.03,1109.19 C152.98,1131 196.04,1157.95 237.21,1176 C259.05,1185.57 278.3479,1191.6801 300.3879,1197.3301 " fill="#FFFFFF" fill-opacity="0.00000" id="TeamMember-to-Complete Tasks" style="stroke:#454645;stroke-width:1;"/><polygon fill="#454645" points="306.2,1198.82,298.4752,1192.7104,301.3566,1197.5784,296.4886,1200.4598,306.2,1198.82" style="stroke:#454645;stroke-width:1;"/></g><!--link PaymentGateway to Process Payment--><g id="link_PaymentGateway_Process Payment"><path d="M134.49,1310.97 C181.13,1305.06 238.5976,1297.7842 286.8176,1291.6742 " fill="#FFFFFF" fill-opacity="0.00000" id="PaymentGateway-to-Process Payment" style="stroke:#454645;stroke-width:1;"/><polygon fill="#454645" points="292.77,1290.92,283.3386,1288.0831,287.8097,1291.5485,284.3442,1296.0196,292.77,1290.92" style="stroke:#454645;stroke-width:1;"/></g><!--link PaymentGateway to Send Payment Status--><g id="link_PaymentGateway_Send Payment Status"><path d="M134.49,1327.25 C177.69,1332.87 229.3401,1339.5859 275.9201,1345.6459 " fill="#FFFFFF" fill-opacity="0.00000" id="PaymentGateway-to-Send Payment Status" style="stroke:#454645;stroke-width:1;"/><polygon fill="#454645" points="281.87,1346.42,273.4613,1341.2923,276.9118,1345.7749,272.4292,1349.2255,281.87,1346.42" style="stroke:#454645;stroke-width:1;"/></g><!--link TrelloIntegration to Create Trello Board--><g id="link_TrelloIntegration_Create Trello Board"><path d="M130.6,1487.96 C141.75,1484.88 153.32,1481.78 164.21,1479 C209.39,1467.48 254.8049,1456.9606 293.9849,1448.1906 " fill="#FFFFFF" fill-opacity="0.00000" id="TrelloIntegration-to-Create Trello Board" style="stroke:#454645;stroke-width:1;"/><polygon fill="#454645" points="299.84,1446.88,290.1836,1444.9425,294.9607,1447.9722,291.9311,1452.7493,299.84,1446.88" style="stroke:#454645;stroke-width:1;"/></g><!--link TrelloIntegration to Sync Tasks--><g id="link_TrelloIntegration_Sync Tasks"><path d="M130.92,1518.92 C186,1531.75 260.7264,1549.139 311.0464,1560.859 " fill="#FFFFFF" fill-opacity="0.00000" id="TrelloIntegration-to-Sync Tasks" style="stroke:#454645;stroke-width:1;"/><polygon fill="#454645" points="316.89,1562.22,309.032,1556.2827,312.0203,1561.0858,307.2173,1564.0742,316.89,1562.22" style="stroke:#454645;stroke-width:1;"/></g><!--link TrelloIntegration to Track Progress--><g id="link_TrelloIntegration_Track Progress"><path d="M130.92,1505 C176.9,1505 234.65,1505 283.73,1505 " fill="#FFFFFF" fill-opacity="0.00000" id="TrelloIntegration-to-Track Progress" style="stroke:#454645;stroke-width:1;"/><polygon fill="#454645" points="289.73,1505,280.73,1501,284.73,1505,280.73,1509,289.73,1505" style="stroke:#454645;stroke-width:1;"/></g><!--link Release Payment to Process Payment--><g id="link_Release Payment_Process Payment"><path d="M287.03,67.32 C268.06,72.64 249.65,81.72 237.21,97 C146.45,208.53 185.71,598.85 192.13,742.5 C197.14,854.72 165.54,1159.5 237.21,1246 C249.93,1261.35 262.8855,1268.8363 282.0855,1274.1263 " fill="#FFFFFF" fill-opacity="0.00000" id="Release Payment-to-Process Payment" style="stroke:#454645;stroke-width:1;stroke-dasharray:7.0,7.0;"/><polygon fill="#454645" points="287.87,1275.72,280.2558,1269.4731,283.0496,1274.3919,278.1308,1277.1857,287.87,1275.72" style="stroke:#454645;stroke-width:1;"/><text fill="#000000" font-family="sans-serif" font-size="13" lengthAdjust="spacing" textLength="63.0068" x="165.21" y="738.5669">&#171;include&#187;</text></g><!--link Assign Tasks to Create Trello Board--><g id="link_Assign Tasks_Create Trello Board"><path d="M296.24,421.1 C274.27,425.62 251.83,434.62 237.21,452 C162.76,540.5 186.03,855 192.13,970.5 C202.16,1160.4 115.23,1250.11 237.21,1396 C249.15,1410.27 260.5132,1417.4202 278.3032,1422.9802 " fill="#FFFFFF" fill-opacity="0.00000" id="Assign Tasks-to-Create Trello Board" style="stroke:#454645;stroke-width:1;stroke-dasharray:7.0,7.0;"/><polygon fill="#454645" points="284.03,1424.77,276.633,1418.2674,279.2576,1423.2785,274.2465,1425.9031,284.03,1424.77" style="stroke:#454645;stroke-width:1;"/><text fill="#000000" font-family="sans-serif" font-size="13" lengthAdjust="spacing" textLength="63.0068" x="165.21" y="966.5669">&#171;include&#187;</text></g><!--link Track Task Progress to Track Progress--><g id="link_Track Task Progress_Track Progress"><path d="M282.66,498.6 C265.34,504.19 248.81,513.05 237.21,527 C108.85,681.39 202.16,775.97 192.13,976.5 C186.63,1086.49 166.43,1385.64 237.21,1470 C250.96,1486.38 265.7643,1494.0653 286.4343,1499.0053 " fill="#FFFFFF" fill-opacity="0.00000" id="Track Task Progress-to-Track Progress" style="stroke:#454645;stroke-width:1;stroke-dasharray:7.0,7.0;"/><polygon fill="#454645" points="292.27,1500.4,284.4463,1494.4175,287.407,1499.2378,282.5867,1502.1984,292.27,1500.4" style="stroke:#454645;stroke-width:1;"/><text fill="#000000" font-family="sans-serif" font-size="13" lengthAdjust="spacing" textLength="63.0068" x="165.21" y="989.5669">&#171;include&#187;</text></g><!--SRC=[XLFBRi8m4BpdAxQScWFjlK98BL8HYAgey0CcsGGNnqPh4nHL_VSwiQ5vcFPep-nuTdPzP_PO89HyHqoQI61cm2WWdkyDf9mmCLp9A6A9KGGpmT6ot66qHLR02bcAD0AceJwxOuVnXiMknN372sFDgi9AmfmPFBEgOVaxVtNL8XH2mK8Qp8dLhfnaSzswZQBQD9EvG7Wbn3dAf8Al2Bnx68-dSF-1ETS6wN6bSYxZ7hfMsi2QrATLwcCRP9Ji8REUwdPqF50kEPxXFSkG0g10fl7IOX-swPK8Nk7oGXnPrc-sj_pt6JD26w1N6C8BMN8F-mdfEFXEeSh_QS_7ewWQnpwrC4jhdalOCdq8ubjYoQ61QvcSK0TfWvHSXDUSdC-_ScepbehBJafjq3rr2ssjmbBjT8WoKyLHO1sqQzfIkklj5uvKOhjjxqM8ja6PNW3O66PEJdBm2Rehu7xEYsAKnhVPcqechTc4IMv4lzEnpC5ImqEW8tY2oOJBH9nId4xhiiusD3KXlyEwq9OqvJrllShl7m00]--></g></svg>